{"title":"L.Illusionniste[The Illusionist]2010.720p.BRRip.XviD.AC3-Rx","uid":6165489,"size":1370193805,"categoryP":"video","categoryS":"hd___movies","magnet":"?xt=urn:btih:e9ea381640635253ff0706b39cc7b21e5f5d8773&amp;dn=L.Illusionniste%5BThe+Illusionist%5D2010.720p.BRRip.XviD.AC3-Rx&amp;tr=udp%3A%2F%2Ftracker.openbittorrent.com%3A80&amp;tr=udp%3A%2F%2Fopen.demonii.com%3A1337&amp;tr=udp%3A%2F%2Ftracker.coppersurfer.tk%3A6969&amp;tr=udp%3A%2F%2Fexodus.desync.com%3A6969","seeders":5,"leechers":0,"uploader":"CODYBOSS1969","files":10,"time":1297370484,"description":"General\nComplete name                    : L.Illusionniste.2010.720p.BRRip.XviD.AC3-Rx\\rx-IL-720p.avi.avi\nFormat                           : AVI\nFormat/Info                      : Audio Video Interleave\nFormat profile                   : OpenDML\nFile size                        : 1.25 GiB\nDuration                         : 1h 19mn\nOverall bit rate                 : 2 251 Kbps\nWriting application              : AVI-Mux GUI 1.17.8.3, Feb 16 201019:42:50\n\nVideo\nID                               : 0\nFormat                           : MPEG-4 Visual\nFormat profile                   : Advanced Simple@L5\nFormat settings, BVOP            : Yes\nFormat settings, QPel            : No\nFormat settings, GMC             : No warppoints\nFormat settings, Matrix          : Default (H.263)\nCodec ID                         : XVID\nCodec ID/Hint                    : XviD\nDuration                         : 1h 19mn\nBit rate                         : 1 797 Kbps\nWidth                            : 1 280 pixels\nHeight                           : 688 pixels\nDisplay aspect ratio             : 1.860\nFrame rate                       : 24.000 fps\nColor space                      : YUV\nChroma subsampling               : 4:2:0\nBit depth                        : 8 bits\nScan type                        : Progressive\nCompression mode                 : Lossy\nBits/(Pixel*Frame)               : 0.085\nStream size                      : 1.00 GiB (80%)\nWriting library                  : XviD 1.2.1 (UTC 2008-12-04)\n\nAudio\nID                               : 1\nFormat                           : AC-3\nFormat/Info                      : Audio Coding 3\nMode extension                   : CM (complete main)\nCodec ID                         : 2000\nDuration                         : 1h 19mn\nBit rate mode                    : Constant\nBit rate                         : 448 Kbps\nChannel(s)                       : 6 channels\nChannel positions                : Front: L C R, Side: L R, LFE\nSampling rate                    : 48.0 KHz\nBit depth                        : 16 bits\nCompression mode                 : Lossy\nStream size                      : 255 MiB (20%)\nAlignment                        : Aligned on interleaves\nInterleave, duration             : 64 ms (1.54 video frames)\nInterleave, preload duration     : 192 ms\nTitle                            : T2_Audio - French\n\n\n\n\nIMDB link:                        &lt;a href=&quot; http://www.imdb.com/title/tt0775489/&quot; rel=&quot;nofollow&quot; target=&quot;_NEW&quot;&gt; http://www.imdb.com/title/tt0775489/&lt;/a&gt;\n\n\n\nSubtiles included               : English, French, Spanish, Portuguese, Romanian","torrent":{"xt":"urn:btih:e9ea381640635253ff0706b39cc7b21e5f5d8773","amp;dn":"L.Illusionniste%5BThe+Illusionist%5D2010.720p.BRRip.XviD.AC3-Rx","amp;tr":["udp%3A%2F%2Ftracker.openbittorrent.com%3A80","udp%3A%2F%2Fopen.demonii.com%3A1337","udp%3A%2F%2Ftracker.coppersurfer.tk%3A6969","udp%3A%2F%2Fexodus.desync.com%3A6969"],"infoHash":"e9ea381640635253ff0706b39cc7b21e5f5d8773","infoHashBuffer":{"type":"Buffer","data":[233,234,56,22,64,99,82,83,255,7,6,179,156,199,178,30,95,93,135,115]},"announce":[],"urlList":[]}}